<?xml version="1.0" encoding="UTF-8"?>
<svg width="40px" height="40px" viewBox="0 0 40 40" version="1.1" xmlns="http://www.w3.org/2000/svg" xmlns:xlink="http://www.w3.org/1999/xlink">
    <title>文档</title>
    <defs>
        <filter id="filter-1">
            <feColorMatrix in="SourceGraphic" type="matrix" values="0 0 0 0 0.192157 0 0 0 0 0.627451 0 0 0 0 1.000000 0 0 0 1.000000 0"></feColorMatrix>
        </filter>
    </defs>
    <g id="页面-1" stroke="none" stroke-width="1" fill="none" fill-rule="evenodd">
        <g id="02-检材详情-01使用统计" transform="translate(-288.000000, -585.000000)">
            <g id="文档" transform="translate(248.000000, 545.000000)" filter="url(#filter-1)">
                <g transform="translate(40.000000, 40.000000)">
                    <rect id="矩形" fill="#000000" fill-rule="nonzero" opacity="0" x="0" y="0" width="40" height="40"></rect>
                    <path d="M25.4166667,1.66666668 C25.6148321,1.66706956 25.8101122,1.71417662 25.9866667,1.80416668 L26.0416667,1.83416668 C26.0989615,1.86776719 26.1538193,1.90536014 26.2058333,1.94666668 L26.2266667,1.96416668 L26.2841667,2.01666668 L34.6508333,10.3833333 L34.6766667,10.4108333 L34.6833333,10.4183333 L34.6333333,10.3658333 L34.7025,10.4408333 L34.73,10.4741667 C34.7560477,10.5068698 34.78052,10.5407972 34.8033333,10.5758333 L34.8325,10.625 L34.8625,10.6791667 C34.9508333,10.8508334 35,11.0441667 35,11.25 L35,36.6666667 C35,37.5871413 34.2538079,38.3333333 33.3333333,38.3333333 L6.66666668,38.3333333 C5.7461921,38.3333333 5,37.5871413 5,36.6666667 L5,3.33333332 C5,2.41285875 5.7461921,1.66666668 6.66666668,1.66666668 L25.4166667,1.66666668 Z M22.5,4.16666668 L7.5,4.16666668 L7.5,35.8333333 L32.5,35.8333333 L32.5,14.1666667 L24.1666667,14.1666667 C23.2461921,14.1666667 22.5,13.4204746 22.5,12.5 L22.5,4.16666668 Z M21.25,25.8333333 C21.9403559,25.8333333 22.5,26.3929774 22.5,27.0833333 C22.5,27.7736893 21.9403559,28.3333333 21.25,28.3333333 L14.5833333,28.3333333 C13.8929774,28.3333333 13.3333333,27.7736893 13.3333333,27.0833333 C13.3333333,26.3929774 13.8929774,25.8333333 14.5833333,25.8333333 L21.25,25.8333333 Z M25.5558333,18.3333333 C26.1691666,18.3333333 26.6666667,18.8933333 26.6666667,19.5833333 C26.6666667,20.2733333 26.1691667,20.8333333 25.5558333,20.8333333 L14.4441667,20.8333333 C13.8308333,20.8333333 13.3333333,20.2733333 13.3333333,19.5833333 C13.3333333,18.8933333 13.8308333,18.3333333 14.4441667,18.3333333 L25.5558333,18.3333333 L25.5558333,18.3333333 Z M25,4.2675 L25,11.6666667 L32.3991667,11.6666667 L25,4.2675 Z" id="形状" fill="#4E4E4E" fill-rule="nonzero"></path>
                </g>
            </g>
        </g>
    </g>
</svg>